<svg xmlns="http://www.w3.org/2000/svg" xmlns:xlink="http://www.w3.org/1999/xlink" id="Camada_1" x="0px" y="0px" viewBox="0 0 100 100" xml:space="preserve">
<path fill="#0878BD" d="M56.3,66.8c-1.1,3.1-3.1,5.3-6.5,5.4c-3.7,0.1-5.8-2.1-7-5.4c-3,0-5.9,0-8.9,0c-1.4,0-1.8-0.5-1.8-1.9  c0.1-1.7,0.3-3.3,1.3-4.7c3.3-4.9,3.9-10.5,3.9-16.2c0-2.1,0.3-4.2,1-6.2c2.1-5.4,7.1-8.5,12.8-7.8c0.3,0,0.7-0.1,0.9-0.3  c2.3-2.2,5-3.1,8.1-2.1c3.1,1.1,5.1,3.3,5.7,6.6c0.6,3.1-1.3,6.8-4.4,8.4c-0.6,0.3-0.8,0.7-0.8,1.4c0.2,2.3,0.3,4.7,0.6,7  c0.4,2.9,1.7,5.5,3.5,7.8c1.4,1.8,2.4,3.7,2.4,6c0,1.5-0.4,1.9-1.9,1.9C62.3,66.8,59.3,66.8,56.3,66.8 M64.3,64  c-0.3-1.5-1.1-2.6-1.9-3.6c-2.7-3.6-4-7.7-4.3-12.2c-0.1-1.5-0.2-3-0.3-4.6c-2.8-0.1-5-1.3-6.6-3.5c-1.7-2.2-2-4.7-1.2-7.4  c-4-0.2-7.1,1.6-8.6,4.6c-1,2-1.3,4.1-1.4,6.3c-0.1,2.8-0.3,5.6-0.6,8.3c-0.4,3.1-1.6,6-3.2,8.7c-0.6,1-1,2.1-1.5,3.3h29.6V64z   M52.3,35.3c0,3.2,2.2,5.5,5.4,5.5c3.3,0,5.4-2.2,5.5-5.3c0.1-3.2-2.2-5.5-5.3-5.6C54.7,29.9,52.3,32.3,52.3,35.3 M45.8,66.8  c0.1,1.4,1.8,2.7,3.8,2.7c1.9,0,3.4-1.1,3.8-2.7H45.8z"></path>
<path fill="#27316C" d="M73.2,39.9v-5c0-7.4,0-14.7,0-22.1c0-4.9-2.7-7.7-7.6-7.8C55.2,5,44.8,5,34.3,5c-5.1,0-7.7,2.7-7.7,7.8  c0,24.8,0,49.6,0,74.4c0,5,2.6,7.7,7.5,7.7c10.5,0,21.1,0,31.6,0c4.8,0,7.5-2.8,7.5-7.5C73.3,85.1,73.2,42.4,73.2,39.9 M58.7,10.2  c0.8,0,1.5,0.7,1.5,1.5s-0.7,1.5-1.5,1.5s-1.5-0.7-1.5-1.5S57.9,10.2,58.7,10.2 M43.7,10.2H53c0.8,0,1.5,0.7,1.5,1.5  s-0.7,1.5-1.5,1.5h-9.4c-0.8,0-1.5-0.7-1.5-1.5S42.8,10.2,43.7,10.2 M49.7,91.9c-2.1-0.1-3.9-1.9-3.9-4c0-2.2,2-4.1,4.1-4  c2.2,0,4.1,2,4,4.2C53.8,90.3,51.9,92,49.7,91.9 M68.9,39.9c0,0.3,0,40.9-0.1,41.3H30.9V19h38c0,0.6,0.1,1.3,0.1,1.9  c0,4.6,0,9.3,0,13.9L68.9,39.9z"></path>
<path fill="#27316C" d="M56.7,35.3c0-0.7,0-1.4,0-2.1c0-0.7,0.4-1.1,1.1-1.1c0.6,0,1.1,0.4,1.1,1.1c0,1.4,0,2.8,0,4.2  c0,0.6-0.4,1.1-1,1.1c-0.6,0-1.1-0.4-1.1-1.1C56.7,36.8,56.7,36,56.7,35.3L56.7,35.3z"></path>
</svg>