<svg xmlns="http://www.w3.org/2000/svg" xmlns:xlink="http://www.w3.org/1999/xlink" id="Camada_1" x="0px" y="0px" viewBox="0 0 100 100" style="enable-background:new 0 0 100 100;" xml:space="preserve">
<style type="text/css">
	.st0{fill:#27316C;}
	.st1{fill:#0878BD;}
</style>
<g>
	<path class="st0" d="M25.6,10.1h18.7v18.1H25.6V10.1z M21.1,33.4h27.6V5H21.1V33.4z"></path>
	<path class="st0" d="M25.6,41h18.7v18.1H25.6V41z M21.1,64.2h27.6V35.8H21.1V64.2z"></path>
	<path class="st0" d="M55.7,10.1h18.7v18.1H55.7V10.1z M51.2,33.4h27.6V5H51.2V33.4z"></path>
	<path class="st0" d="M55.7,41h18.7v18.1H55.7V41z M51.2,64.2h27.6V35.8H51.2V64.2z"></path>
	<rect x="30" y="44.9" class="st1" width="10" height="6"></rect>
	<path class="st0" d="M55.7,71.8h18.7v18.1H55.7V71.8z M51.2,95h27.6V66.6H51.2V95z"></path>
	<path class="st0" d="M25.7,71.3h18.5v19H25.7V71.3z M21.1,95h27.6V66.6H21.1V95z"></path>
</g>
</svg>