<svg xmlns="http://www.w3.org/2000/svg" xmlns:xlink="http://www.w3.org/1999/xlink" id="Camada_1" x="0px" y="0px" viewBox="0 0 100 100" style="enable-background:new 0 0 100 100;" xml:space="preserve">
<style type="text/css">
	.st0{fill:#28306E;}
	.st1{fill-rule:evenodd;clip-rule:evenodd;fill:#0578BE;}
</style>
<g>
	<path class="st0" d="M24.9,8.7h19.9v20.9H24.9V8.7z M21.2,33.4h27.6V5H21.2V33.4z"></path>
	<path class="st0" d="M66.1,40.4h9.1v19.5h-9.1V40.4z M62.6,64.2h16.2V35.8H62.6V64.2z"></path>
	<path class="st0" d="M55.1,8.7h19.8v20.9h-8.3v-8.4l-11.5,4.7C55.1,25.9,55.1,8.7,55.1,8.7z M51.2,5v27.9l11.4-5.5v6h16.2V5H51.2z"></path>
	<path class="st0" d="M66.1,70.8h8.6v19.8h-19V74.1l10.4,4.5V70.8z M62.6,66.6v6l-11.4-5.5V95h27.6V66.6H62.6z"></path>
	<path class="st0" d="M25.3,41.6H42v16.7H25.3V41.6z M21.2,62.4H46V37.6H21.2V62.4z"></path>
	<path class="st0" d="M25.3,71h19.3v19.8H25.3V71z M21.2,95h27.6V66.6H21.2V95z"></path>
	<rect x="24.9" y="41" class="st1" width="17.5" height="17.8"></rect>
	<polygon class="st1" points="58.4,34 48.8,37.6 48.8,62.4 58.4,65.6  "></polygon>
</g>
</svg>