<svg xmlns="http://www.w3.org/2000/svg" xmlns:xlink="http://www.w3.org/1999/xlink" id="Camada_1" x="0px" y="0px" viewBox="0 0 100 100" xml:space="preserve">
<g>
	<path fill="#26316B" d="M66.4,51.2h-15c0.5,3.7,4.1,6.5,8.1,6.2C63,57.2,66.5,54.1,66.4,51.2 M84.8,51.2h-15c0.2,3.1,3.6,6.1,7,6.2   C80.8,57.5,84.3,54.9,84.8,51.2 M14.9,51.2c0.5,3.8,4.1,6.5,8.2,6.2c3.4-0.2,6.8-3.3,6.8-6.2H14.9z M48.2,51.2h-15   c-0.1,2.8,3.3,6,6.7,6.2C44,57.7,47.8,55,48.2,51.2 M61.5,74.4V60c-2.2,0.6-4.3,0.4-6.4-0.4c-2.1-0.8-3.7-2.1-5.1-4v18.8H61.5z    M76,74.4V60.3c-3.3-0.5-6-2.1-7.8-4.8c-1.1,1-2.1,2.1-3.2,3c-0.4,0.3-0.6,0.6-0.6,1.1c0,4.7,0,9.4,0,14c0,0.3,0,0.5,0,0.8H76z    M12.4,92h75.1v-1.4v-1.4H12.4V92z M38.4,65.8H26.9v20.4h11.5V65.8z M29.7,36.6c-0.1,0-0.2-0.1-0.3-0.1c-3.7,0-7.4,0-11.1,0   c-0.5,0-0.5,0.3-0.6,0.6c-0.6,2.5-1.1,4.9-1.7,7.4c-0.3,1.2-0.5,2.4-0.8,3.6h69.2c-0.8-3.9-1.6-7.8-2.4-11.5H70.2v8.6h-2.9v-8.7H50   v8.7h-2.9v-8.7H32.6v8.6h-2.9V36.6z M41.4,86.1h40.4V59.4c-0.7,0.2-1.3,0.5-2,0.6c-0.7,0.1-0.8,0.4-0.8,1c0,4.8,0,9.6,0,14.4   c0,1.6-0.4,2-2,2c-9.3,0-18.6,0-27.9,0c-1.6,0-2-0.4-2-2.1c0-5.4,0-10.8,0-16.1c0-0.3,0-0.5,0-0.9c-2.6,1.8-5.4,2.5-8.4,1.9   c-3-0.6-5.3-2.3-7-4.9c-3.4,4.7-7.9,6.1-13.3,4.3v26.5H24v-1V64.8c0-1.5,0.5-2,2-2c4.5,0,8.9,0,13.4,0c1.6,0,2,0.5,2,2.1v20.3V86.1   z M81.7,21.9H18.3v11.6h63.5V21.9z M15.3,86.1v-0.8c0-8.9,0-17.9,0-26.8c0-0.6-0.2-1-0.6-1.3c-1.8-1.8-2.9-4-2.8-6.5   c0-1.3,0.4-2.7,0.7-4c0.8-3.7,1.7-7.5,2.5-11.2c0.1-0.4,0.1-0.8,0.1-1.2c0-4.4,0-8.9,0-13.3c0-1.4,0.5-1.9,1.9-1.9   c21.9,0,43.7,0,65.6,0c1.4,0,1.9,0.5,1.9,1.9c0,3.2,0,6.5,0,9.7c-0.1,2.7,0.1,5.4,0.8,8c0.7,3,1.2,6.1,1.9,9.1   c0.8,2.9,0.3,5.5-1.3,7.9c-0.3,0.5-0.7,0.9-1,1.3c-0.2,0.3-0.4,0.6-0.4,1c0,9.2,0,18.4,0,27.5c0,0.2,0,0.4,0,0.7c1.3,0,2.5,0,3.8,0   c1.5,0,1.9,0.5,1.9,2c0,1.6,0,3.3,0,4.9c0,1.4-0.5,1.9-1.9,1.9c-25.7,0-51.4,0-77.2,0c-1.4,0-1.9-0.5-1.9-1.9c0-1.6,0-3.3,0-4.9   c0-1.5,0.5-2,2-2c1.2,0,2.3,0,3.5,0C15.1,86.2,15.1,86.1,15.3,86.1"></path>
	<path fill="#0477BC" d="M41.4,79v-1V57.7c0-1.6-0.5-2.1-2-2.1c-4.5,0-8.9,0-13.4,0c-1.5,0-2,0.5-2,2V78v1h3V58.6h11.5V79H41.4z"></path>
	<path fill="#0477BC" d="M18.4,8c3.7,0,7.4,0,11.1,0c0.1,0,0.1,0,0.3,0.1v8.6h2.9V8.1h14.4v8.6H50V8.1h17.3v8.7h2.9V8.1l11.9,0   L81.7,5L18.3,5L18,8.1L18.4,8"></path>
</g>
</svg>