<svg xmlns="http://www.w3.org/2000/svg" xmlns:xlink="http://www.w3.org/1999/xlink" id="Camada_1" x="0px" y="0px" viewBox="0 0 100 100" xml:space="preserve">
<g>
	<path fill="#0477BC" d="M75.5,44.1c-2.4,0.4-4.5,0.8-6.8,1.1c0.1,1.7,0.3,3.3,0.4,5c1.7-0.3,3.3-0.5,4.9-0.8c0.2,0,0.4-0.3,0.5-0.5   C74.8,47.4,75.1,45.8,75.5,44.1 M68.5,42.5c2.4-0.4,4.8-0.8,7.1-1.2c0.2,0,0.5-0.3,0.5-0.4c0.3-1.4,0.6-2.7,0.9-4.3   c-3,0.4-5.9,0.8-8.9,1.1C68.3,39.4,68.4,40.9,68.5,42.5 M59,52c2.5-0.4,4.9-0.8,7.4-1.2c-0.1-1.7-0.3-3.4-0.4-5.1   c-2.8,0.5-5.5,0.9-8.3,1.4C58.2,48.8,58.6,50.3,59,52 M54.4,44.9c-0.3-1.2-0.6-2.3-0.9-3.4c-0.5-1.8-0.5-1.8-2.2-1.6   c-2.4,0.3-4.7,0.6-7.2,0.9c0.7,1.4,1.3,2.8,1.9,4.1c0.6,1.3,0.6,1.3,1.9,1.1c0.5-0.1,0.9-0.1,1.4-0.2   C50.9,45.5,52.6,45.2,54.4,44.9 M55.7,39.3c0.5,1.8,0.9,3.4,1.4,5.1c2.9-0.5,5.6-0.9,8.3-1.4c0.2,0,0.4-0.3,0.4-0.4   c-0.1-1.5-0.2-3-0.4-4.5C62.2,38.5,59,38.9,55.7,39.3 M46.9,53.2c-0.3-0.6-0.5-1.1-0.8-1.8c1,0,1.9-0.1,2.7,0c0.3,0,0.6,0.6,0.7,1   c0.3,0.8,0.7,1,1.6,0.9c1.7-0.4,3.4-0.6,5.2-0.9c-0.4-1.7-0.8-3.2-1.3-4.9c-1.7,0.3-3.3,0.6-4.9,0.8c-1,0.1-2.1,0.3-3.1,0.3   c-5.8,0-11.7,0-17.5,0c-1.3,0-2-0.5-2-1.3c0-0.9,0.7-1.3,2-1.3c4.3,0,8.5,0,12.8,0h1c-0.1-0.3-0.1-0.5-0.2-0.7   c-1.3-2.8-2.7-5.7-4-8.5c-0.3-0.6-0.5-0.7-1.1-0.6c-2.3,0.4-4.7,0.8-7,1.2c-0.4,0.1-1,0.1-1.3-0.1c-0.4-0.3-0.7-0.8-0.7-1.3   c0-0.7,0.5-1,1.1-1.2c2.1-0.4,4.2-0.7,6.3-1c0.9-0.1,1.8-0.3,2.6-0.4c0.9-0.2,1.5,0.1,1.9,0.9c0.5,1.1,1.1,2.2,1.6,3.4   c0.2,0.5,0.5,0.7,1.1,0.6c5-0.7,10-1.3,14.9-1.9c5-0.6,9.9-1.2,14.9-1.9c1.6-0.2,3.2-0.4,4.7-0.6c1.5-0.2,2.2,0.5,1.9,1.9   c-1,4.8-2,9.7-3,14.5c-0.3,1.4-0.5,1.6-1.9,1.8c-7,1.2-13.9,2.3-20.9,3.5c-3.3,0.6-6.5,0.3-9.8,0.4c-3.5,0.1-7.1,0-10.6,0   c-0.2,0-0.5,0-0.7,0c-0.8-0.1-1.3-0.6-1.3-1.3c0-0.8,0.5-1.3,1.3-1.3c1.3,0,2.7,0,4,0H46.9"></path>
	<path fill="#0477BC" d="M58.5,65.1c0-1.4-1-2.4-2.4-2.4c-1.3,0-2.4,1.1-2.4,2.4c0,1.3,1.1,2.4,2.4,2.4   C57.4,67.5,58.4,66.4,58.5,65.1 M75.1,62.2c0-1.3-1.1-2.4-2.3-2.4c-1.3,0-2.5,1.1-2.5,2.4c0,1.3,1.1,2.4,2.4,2.4   C74.1,64.7,75.1,63.6,75.1,62.2 M76.9,59.1c1.4,2.7,1.2,4.9-0.4,6.7c-1.5,1.6-3.9,2-5.9,1.1c-2.2-1.1-3.1-3-2.7-6.3   c-2.6,0.4-5.1,0.8-7.6,1.2c1.5,3.6,1,6-1.4,7.5c-2,1.3-4.8,1-6.5-0.8c-1.8-2-1.8-4.5,0-7.1c-0.9-0.8-1.8-1.6-2.8-2.5l0.1-0.3   c1.5,0.1,2.9-0.3,4.4,0.4c1.8,0.8,3.7,0.5,5.5,0.1c5.4-0.9,10.9-1.8,16.3-2.7c0.8-0.1,1.5-0.1,1.9,0.8   C78.2,58.2,77.6,58.7,76.9,59.1"></path>
	<path fill="#0477BC" d="M42.2,63c-1.2,0-2.4,0-3.6,0c-0.9,0-1.4-0.5-1.5-1.3c0-0.8,0.5-1.4,1.5-1.4c2.5,0,4.9,0,7.4,0   c1,0,1.6,0.5,1.6,1.3c0,0.8-0.6,1.3-1.7,1.3C44.7,63,43.4,63,42.2,63"></path>
	<path fill="#26316B" d="M47.3,88.5c-0.1,2.2-2,4-4.2,3.9c-2.1-0.1-3.9-1.9-3.9-4c0-2.2,2-4.1,4.1-4C45.5,84.3,47.4,86.3,47.3,88.5    M37,10.6h9.4c0.8,0,1.5,0.7,1.5,1.5c0,0.8-0.7,1.5-1.5,1.5H37c-0.8,0-1.5-0.7-1.5-1.5C35.6,11.3,36.2,10.6,37,10.6 M52.1,10.6   c0.8,0,1.5,0.6,1.5,1.5s-0.7,1.5-1.5,1.5c-0.8,0-1.5-0.6-1.5-1.5S51.3,10.6,52.1,10.6 M62.3,64.6c0,8.9,0,16.8,0,17h-38V19.4h38   c0,0.6,0.1,1.3,0.1,1.9c0,3.8,0,7.7,0,11.5l4.2-0.6c0-6.3,0-12.7,0-19c0-4.9-2.7-7.7-7.6-7.8c-10.5,0-20.9,0-31.4,0   c-5.1,0-7.7,2.7-7.7,7.8c0,24.8,0,49.6,0,74.4c0,5,2.6,7.7,7.5,7.7c10.5,0,21.1,0,31.6,0c4.8,0,7.5-2.8,7.5-7.5   c0-1.2,0-12.5,0-23.9L62.3,64.6z"></path>
</g>
</svg>